<svg width="201" height="60" viewBox="0 0 201 60" fill="none" xmlns="http://www.w3.org/2000/svg">
<path d="M6.95799 29.6565C6.95799 16.842 17.3917 6.49881 30.2156 6.49881C43.0395 6.49881 53.4732 16.8877 53.4732 29.6565H60.0001C60.0001 13.318 46.6246 0 30.2156 0C13.8066 0 0.431152 13.318 0.431152 29.6565C0.431152 45.9951 13.8066 59.3131 30.2156 59.3131V52.86C17.3458 52.86 6.95799 42.4711 6.95799 29.6565Z" fill="white"/>
<path d="M60.0001 59.4505V29.6567L53.5192 29.5194V52.8602H30.2156V59.359L60.0001 59.4505Z" fill="white"/>
<path d="M29.8024 12.5402C20.6557 12.769 13.1636 20.1832 12.9797 29.2906C12.7499 38.9473 20.5637 46.8649 30.2161 46.8649C30.308 46.8649 30.354 46.8649 30.4459 46.8649H44.8326C46.3034 46.8649 47.4985 45.675 47.4985 44.2104V39.7253V29.6568C47.4525 20.0459 39.5008 12.2656 29.8024 12.5402ZM40.0064 33.2265H33.7553V39.4508H26.6769V33.2265H20.4259V26.1785H26.6769V19.9086H33.7553V26.1328H40.0064V33.2265Z" fill="white"/>
<path d="M81.0514 19.4503L78.3395 25.4457C78.2936 25.4914 78.2476 25.5372 78.1557 25.5372H75.214C75.0761 25.5372 74.9842 25.3999 75.0301 25.2626L86.613 0.13694C86.659 -0.000358619 86.8888 -0.000358619 86.9347 0.13694L98.5176 25.2626C98.5636 25.3999 98.4716 25.5372 98.3337 25.5372H95.3921C95.3001 25.5372 95.2542 25.4914 95.2082 25.4457L92.4964 19.4503C92.4504 19.4045 92.4044 19.3588 92.3125 19.3588H81.1433C81.1433 19.3588 81.0514 19.4045 81.0514 19.4503ZM86.613 6.91035L82.4763 16.2924C82.4303 16.4297 82.5222 16.567 82.6601 16.567H90.9336C91.0715 16.567 91.1634 16.4297 91.1174 16.2924L86.9807 6.91035C86.8888 6.77305 86.659 6.77305 86.613 6.91035Z" fill="white"/>
<path d="M108.814 22.7458H115.984C116.076 22.7458 116.168 22.8373 116.168 22.9288V25.4002C116.168 25.4918 116.076 25.5833 115.984 25.5833H105.734C105.642 25.5833 105.55 25.4918 105.55 25.4002V1.05257C105.55 0.961037 105.642 0.869507 105.734 0.869507H108.446C108.538 0.869507 108.63 0.961037 108.63 1.05257V22.5627C108.63 22.6542 108.722 22.7458 108.814 22.7458Z" fill="white"/>
<path d="M129.451 19.4503L126.739 25.4457C126.693 25.4914 126.647 25.5372 126.555 25.5372H123.614C123.476 25.5372 123.384 25.3999 123.43 25.2626L135.013 0.13694C135.059 -0.000358619 135.289 -0.000358619 135.335 0.13694L146.917 25.2626C146.963 25.3999 146.871 25.5372 146.734 25.5372H143.792C143.7 25.5372 143.654 25.4914 143.608 25.4457L140.896 19.4503C140.85 19.4045 140.804 19.3588 140.712 19.3588H129.543C129.543 19.3588 129.497 19.4045 129.451 19.4503ZM135.059 6.91035L130.922 16.2924C130.876 16.4297 130.968 16.567 131.106 16.567H139.379C139.517 16.567 139.609 16.4297 139.563 16.2924L135.426 6.91035C135.289 6.77305 135.105 6.77305 135.059 6.91035Z" fill="white"/>
<path d="M175.186 13.0887C175.277 13.0887 175.369 13.1802 175.369 13.2717V14.0955C175.369 20.8689 170.543 26.0863 163.603 26.0863C156.662 26.0863 151.055 20.1367 151.055 13.2717C151.055 6.17796 156.8 0.319885 163.924 0.319885C167.739 0.319885 171.462 2.01323 173.945 4.98803C173.99 5.07957 173.99 5.1711 173.945 5.21687L172.06 7.04752C171.968 7.13905 171.876 7.09328 171.784 7.04752C169.992 4.71344 167.05 3.15738 164.108 3.15738C158.547 3.15738 154.18 7.64247 154.18 13.1802C154.18 18.3518 158.455 23.2945 163.833 23.2945C167.602 23.2945 171.692 20.0909 171.968 16.155C171.968 16.0635 171.876 15.9719 171.784 15.9719H165.717C165.625 15.9719 165.533 15.8804 165.533 15.7889V13.3175C165.533 13.226 165.625 13.1344 165.717 13.1344H175.186V13.0887Z" fill="white"/>
<path d="M182.953 19.4503L180.241 25.4457C180.195 25.4914 180.149 25.5372 180.057 25.5372H177.116C176.978 25.5372 176.886 25.3999 176.932 25.2626L188.515 0.13694C188.561 -0.000358619 188.791 -0.000358619 188.836 0.13694L200.419 25.2626C200.465 25.3999 200.373 25.5372 200.235 25.5372H197.294C197.202 25.5372 197.156 25.4914 197.11 25.4457L194.398 19.4503C194.352 19.4045 194.306 19.3588 194.214 19.3588H183.045C183.045 19.3588 182.999 19.4045 182.953 19.4503ZM188.561 6.91035L184.424 16.2924C184.378 16.4297 184.47 16.567 184.608 16.567H192.881C193.019 16.567 193.111 16.4297 193.065 16.2924L188.928 6.91035C188.836 6.77305 188.607 6.77305 188.561 6.91035Z" fill="white"/>
<path d="M90.4741 45.0344V35.4235C90.4741 35.332 90.5661 35.2404 90.658 35.2404H93.3699C93.4618 35.2404 93.5537 35.332 93.5537 35.4235V59.7712C93.5537 59.8627 93.4618 59.9542 93.3699 59.9542H90.658C90.5661 59.9542 90.4741 59.8627 90.4741 59.7712V48.2838C90.4741 48.1923 90.3822 48.1008 90.2903 48.1008H78.8453C78.7534 48.1008 78.6615 48.1923 78.6615 48.2838V59.7712C78.6615 59.8627 78.5696 59.9542 78.4776 59.9542H75.7658C75.6739 59.9542 75.5819 59.8627 75.5819 59.7712V35.4235C75.5819 35.332 75.6739 35.2404 75.7658 35.2404H78.4776C78.5696 35.2404 78.6615 35.332 78.6615 35.4235V45.0344C78.6615 45.126 78.7534 45.2175 78.8453 45.2175H90.2903C90.3822 45.2175 90.4741 45.126 90.4741 45.0344Z" fill="white"/>
<path d="M101.735 35.2404H114.696C114.788 35.2404 114.88 35.332 114.88 35.4235V37.8949C114.88 37.9864 114.788 38.078 114.696 38.078H104.814C104.722 38.078 104.63 38.1695 104.63 38.261V44.8056C104.63 44.8971 104.722 44.9887 104.814 44.9887H114.375C114.467 44.9887 114.558 45.0802 114.558 45.1717V47.6431C114.558 47.7346 114.467 47.8262 114.375 47.8262H104.814C104.722 47.8262 104.63 47.9177 104.63 48.0092V56.9794C104.63 57.071 104.722 57.1625 104.814 57.1625H114.696C114.788 57.1625 114.88 57.254 114.88 57.3456V59.8169C114.88 59.9085 114.788 60 114.696 60H101.735C101.643 60 101.551 59.9085 101.551 59.8169V35.4693C101.551 35.332 101.643 35.2404 101.735 35.2404Z" fill="white"/>
<path d="M125.223 53.867L122.511 59.8624C122.465 59.9081 122.419 59.9539 122.327 59.9539H119.385C119.247 59.9539 119.155 59.8166 119.201 59.6793L130.784 34.5537C130.83 34.4164 131.06 34.4164 131.106 34.5537L142.689 59.6793C142.735 59.8166 142.643 59.9539 142.505 59.9539H139.563C139.471 59.9539 139.425 59.9081 139.379 59.8624L136.668 53.867C136.622 53.8212 136.576 53.7755 136.484 53.7755H125.314C125.314 53.7755 125.223 53.8212 125.223 53.867ZM130.784 41.3271L126.647 50.7091C126.601 50.8464 126.693 50.9837 126.831 50.9837H135.105C135.243 50.9837 135.335 50.8464 135.289 50.7091L131.152 41.3271C131.06 41.1898 130.83 41.1898 130.784 41.3271Z" fill="white"/>
<path d="M151.744 57.1167H158.914C159.006 57.1167 159.098 57.2083 159.098 57.2998V59.7712C159.098 59.8627 159.006 59.9542 158.914 59.9542H148.664C148.572 59.9542 148.481 59.8627 148.481 59.7712V35.4235C148.481 35.332 148.572 35.2404 148.664 35.2404H151.376C151.468 35.2404 151.56 35.332 151.56 35.4235V56.9337C151.56 57.071 151.606 57.1167 151.744 57.1167Z" fill="white"/>
<path d="M170.543 59.9542H167.831C167.739 59.9542 167.647 59.8627 167.647 59.7712V38.261C167.647 38.1695 167.555 38.078 167.463 38.078H161.947C161.855 38.078 161.763 37.9864 161.763 37.8949V35.4235C161.763 35.332 161.855 35.2404 161.947 35.2404H176.472C176.564 35.2404 176.656 35.332 176.656 35.4235V37.8949C176.656 37.9864 176.564 38.078 176.472 38.078H170.956C170.864 38.078 170.772 38.1695 170.772 38.261V59.7712C170.726 59.8627 170.634 59.9542 170.543 59.9542Z" fill="white"/>
<path d="M196.88 45.0344V35.4235C196.88 35.332 196.972 35.2404 197.064 35.2404H199.776C199.868 35.2404 199.96 35.332 199.96 35.4235V59.7712C199.96 59.8627 199.868 59.9542 199.776 59.9542H197.064C196.972 59.9542 196.88 59.8627 196.88 59.7712V48.2838C196.88 48.1923 196.788 48.1008 196.696 48.1008H185.251C185.159 48.1008 185.067 48.1923 185.067 48.2838V59.7712C185.067 59.8627 184.975 59.9542 184.883 59.9542H182.172C182.08 59.9542 181.988 59.8627 181.988 59.7712V35.4235C181.988 35.332 182.08 35.2404 182.172 35.2404H184.883C184.975 35.2404 185.067 35.332 185.067 35.4235V45.0344C185.067 45.126 185.159 45.2175 185.251 45.2175H196.696C196.788 45.2175 196.88 45.126 196.88 45.0344Z" fill="white"/>
</svg>
