<svg width="201" height="60" viewBox="0 0 201 60" fill="none" xmlns="http://www.w3.org/2000/svg">
<g clip-path="url(#clip0_5201_1775)">
<path d="M6.95799 29.6565C6.95799 16.842 17.3918 6.49881 30.2157 6.49881C43.0395 6.49881 53.4733 16.8877 53.4733 29.6565H60.0001C60.0001 13.318 46.6247 0 30.2157 0C13.8066 0 0.431152 13.318 0.431152 29.6565C0.431152 45.9951 13.8066 59.3131 30.2157 59.3131V52.86C17.3458 52.86 6.95799 42.4711 6.95799 29.6565Z" fill="#02AFF1"/>
<path d="M60.0001 59.4505V29.6567L53.5192 29.5194V52.8602H30.2156V59.359L60.0001 59.4505Z" fill="#02AFF1"/>
<path d="M29.8025 12.5402C20.6558 12.769 13.1636 20.1832 12.9797 29.2906C12.7499 38.9473 20.5638 46.8649 30.2162 46.8649C30.3081 46.8649 30.354 46.8649 30.4459 46.8649H44.8327C46.3035 46.8649 47.4986 45.675 47.4986 44.2104V39.7253V29.6568C47.4525 20.0459 39.5009 12.2656 29.8025 12.5402ZM40.0064 33.2265H33.7554V39.4508H26.6769V33.2265H20.426V26.1785H26.6769V19.9086H33.7554V26.1328H40.0064V33.2265Z" fill="#02AFF1"/>
<path d="M81.0512 19.4503L78.3394 25.4457C78.2934 25.4914 78.2474 25.5372 78.1555 25.5372H75.2138C75.0759 25.5372 74.984 25.3999 75.03 25.2626L86.6128 0.136971C86.6588 -0.000328094 86.8886 -0.000328094 86.9346 0.136971L98.5174 25.2626C98.5634 25.3999 98.4715 25.5372 98.3336 25.5372H95.3919C95.3 25.5372 95.254 25.4914 95.2081 25.4457L92.4962 19.4503C92.4502 19.4045 92.4043 19.3588 92.3123 19.3588H81.1431C81.1431 19.3588 81.0512 19.4045 81.0512 19.4503ZM86.6128 6.91038L82.4761 16.2924C82.4301 16.4297 82.5221 16.567 82.6599 16.567H90.9334C91.0713 16.567 91.1632 16.4297 91.1173 16.2924L86.9805 6.91038C86.8886 6.77309 86.6588 6.77309 86.6128 6.91038Z" fill="#02AFF1"/>
<path d="M108.814 22.7458H115.984C116.076 22.7458 116.168 22.8373 116.168 22.9289V25.4002C116.168 25.4918 116.076 25.5833 115.984 25.5833H105.734C105.642 25.5833 105.55 25.4918 105.55 25.4002V1.05257C105.55 0.961037 105.642 0.869507 105.734 0.869507H108.446C108.538 0.869507 108.63 0.961037 108.63 1.05257V22.5627C108.63 22.6543 108.722 22.7458 108.814 22.7458Z" fill="#02AFF1"/>
<path d="M129.451 19.4503L126.739 25.4457C126.693 25.4914 126.647 25.5372 126.555 25.5372H123.614C123.476 25.5372 123.384 25.3999 123.43 25.2626L135.013 0.136971C135.059 -0.000328094 135.288 -0.000328094 135.334 0.136971L146.917 25.2626C146.963 25.3999 146.871 25.5372 146.733 25.5372H143.792C143.7 25.5372 143.654 25.4914 143.608 25.4457L140.896 19.4503C140.85 19.4045 140.804 19.3588 140.712 19.3588H129.543C129.543 19.3588 129.497 19.4045 129.451 19.4503ZM135.059 6.91038L130.922 16.2924C130.876 16.4297 130.968 16.567 131.106 16.567H139.379C139.517 16.567 139.609 16.4297 139.563 16.2924L135.426 6.91038C135.288 6.77309 135.105 6.77309 135.059 6.91038Z" fill="#02AFF1"/>
<path d="M175.185 13.0887C175.277 13.0887 175.369 13.1802 175.369 13.2717V14.0955C175.369 20.8689 170.543 26.0863 163.603 26.0863C156.662 26.0863 151.055 20.1367 151.055 13.2717C151.055 6.17796 156.8 0.319885 163.924 0.319885C167.739 0.319885 171.462 2.01323 173.944 4.98803C173.99 5.07956 173.99 5.1711 173.944 5.21686L172.06 7.04751C171.968 7.13905 171.876 7.09328 171.784 7.04751C169.992 4.71343 167.05 3.15738 164.108 3.15738C158.547 3.15738 154.18 7.64247 154.18 13.1802C154.18 18.3518 158.455 23.2945 163.832 23.2945C167.601 23.2945 171.692 20.0909 171.968 16.155C171.968 16.0635 171.876 15.9719 171.784 15.9719H165.717C165.625 15.9719 165.533 15.8804 165.533 15.7889V13.3175C165.533 13.226 165.625 13.1344 165.717 13.1344H175.185V13.0887Z" fill="#02AFF1"/>
<path d="M182.953 19.4503L180.241 25.4457C180.195 25.4914 180.149 25.5372 180.057 25.5372H177.116C176.978 25.5372 176.886 25.3999 176.932 25.2626L188.515 0.136971C188.561 -0.000328094 188.79 -0.000328094 188.836 0.136971L200.419 25.2626C200.465 25.3999 200.373 25.5372 200.235 25.5372H197.294C197.202 25.5372 197.156 25.4914 197.11 25.4457L194.398 19.4503C194.352 19.4045 194.306 19.3588 194.214 19.3588H183.045C183.045 19.3588 182.999 19.4045 182.953 19.4503ZM188.561 6.91038L184.424 16.2924C184.378 16.4297 184.47 16.567 184.608 16.567H192.881C193.019 16.567 193.111 16.4297 193.065 16.2924L188.928 6.91038C188.836 6.77309 188.607 6.77309 188.561 6.91038Z" fill="#02AFF1"/>
<path d="M90.4743 45.0344V35.4235C90.4743 35.332 90.5662 35.2404 90.6582 35.2404H93.37C93.4619 35.2404 93.5539 35.332 93.5539 35.4235V59.7712C93.5539 59.8627 93.4619 59.9542 93.37 59.9542H90.6582C90.5662 59.9542 90.4743 59.8627 90.4743 59.7712V48.2838C90.4743 48.1923 90.3824 48.1008 90.2904 48.1008H78.8455C78.7536 48.1008 78.6616 48.1923 78.6616 48.2838V59.7712C78.6616 59.8627 78.5697 59.9542 78.4778 59.9542H75.7659C75.674 59.9542 75.5821 59.8627 75.5821 59.7712V35.4235C75.5821 35.332 75.674 35.2404 75.7659 35.2404H78.4778C78.5697 35.2404 78.6616 35.332 78.6616 35.4235V45.0344C78.6616 45.126 78.7536 45.2175 78.8455 45.2175H90.2904C90.3824 45.2175 90.4743 45.126 90.4743 45.0344Z" fill="#02AFF1"/>
<path d="M101.734 35.2404H114.696C114.788 35.2404 114.88 35.332 114.88 35.4235V37.8949C114.88 37.9864 114.788 38.078 114.696 38.078H104.814C104.722 38.078 104.63 38.1695 104.63 38.261V44.8056C104.63 44.8971 104.722 44.9887 104.814 44.9887H114.374C114.466 44.9887 114.558 45.0802 114.558 45.1717V47.6431C114.558 47.7346 114.466 47.8262 114.374 47.8262H104.814C104.722 47.8262 104.63 47.9177 104.63 48.0092V56.9794C104.63 57.071 104.722 57.1625 104.814 57.1625H114.696C114.788 57.1625 114.88 57.254 114.88 57.3456V59.8169C114.88 59.9085 114.788 60 114.696 60H101.734C101.643 60 101.551 59.9085 101.551 59.8169V35.4693C101.551 35.332 101.643 35.2404 101.734 35.2404Z" fill="#02AFF1"/>
<path d="M125.223 53.867L122.511 59.8624C122.465 59.9081 122.419 59.9539 122.327 59.9539H119.385C119.247 59.9539 119.155 59.8166 119.201 59.6793L130.784 34.5537C130.83 34.4164 131.06 34.4164 131.106 34.5537L142.689 59.6793C142.735 59.8166 142.643 59.9539 142.505 59.9539H139.563C139.471 59.9539 139.425 59.9081 139.379 59.8624L136.667 53.867C136.622 53.8212 136.576 53.7755 136.484 53.7755H125.314C125.314 53.7755 125.223 53.8212 125.223 53.867ZM130.784 41.3271L126.647 50.7091C126.601 50.8464 126.693 50.9837 126.831 50.9837H135.105C135.243 50.9837 135.335 50.8464 135.289 50.7091L131.152 41.3271C131.06 41.1898 130.83 41.1898 130.784 41.3271Z" fill="#02AFF1"/>
<path d="M151.744 57.1167H158.914C159.006 57.1167 159.098 57.2083 159.098 57.2998V59.7712C159.098 59.8627 159.006 59.9542 158.914 59.9542H148.664C148.572 59.9542 148.48 59.8627 148.48 59.7712V35.4235C148.48 35.332 148.572 35.2404 148.664 35.2404H151.376C151.468 35.2404 151.56 35.332 151.56 35.4235V56.9337C151.56 57.071 151.606 57.1167 151.744 57.1167Z" fill="#02AFF1"/>
<path d="M170.542 59.9542H167.831C167.739 59.9542 167.647 59.8627 167.647 59.7712V38.261C167.647 38.1695 167.555 38.078 167.463 38.078H161.947C161.855 38.078 161.763 37.9864 161.763 37.8949V35.4235C161.763 35.332 161.855 35.2404 161.947 35.2404H176.472C176.564 35.2404 176.656 35.332 176.656 35.4235V37.8949C176.656 37.9864 176.564 38.078 176.472 38.078H170.956C170.864 38.078 170.772 38.1695 170.772 38.261V59.7712C170.726 59.8627 170.634 59.9542 170.542 59.9542Z" fill="#02AFF1"/>
<path d="M196.88 45.0344V35.4235C196.88 35.332 196.972 35.2404 197.064 35.2404H199.776C199.867 35.2404 199.959 35.332 199.959 35.4235V59.7712C199.959 59.8627 199.867 59.9542 199.776 59.9542H197.064C196.972 59.9542 196.88 59.8627 196.88 59.7712V48.2838C196.88 48.1923 196.788 48.1008 196.696 48.1008H185.251C185.159 48.1008 185.067 48.1923 185.067 48.2838V59.7712C185.067 59.8627 184.975 59.9542 184.883 59.9542H182.171C182.08 59.9542 181.988 59.8627 181.988 59.7712V35.4235C181.988 35.332 182.08 35.2404 182.171 35.2404H184.883C184.975 35.2404 185.067 35.332 185.067 35.4235V45.0344C185.067 45.126 185.159 45.2175 185.251 45.2175H196.696C196.788 45.2175 196.88 45.126 196.88 45.0344Z" fill="#02AFF1"/>
</g>
<defs>
<clipPath id="clip0_5201_1775">
<rect width="200" height="60" fill="white" transform="translate(0.431152)"/>
</clipPath>
</defs>
</svg>
