<svg width="61" height="60" viewBox="0 0 61 60" fill="none" xmlns="http://www.w3.org/2000/svg">
<g clip-path="url(#clip0_5201_1790)">
<path d="M6.95799 29.6565C6.95799 16.842 17.3918 6.49881 30.2157 6.49881C43.0395 6.49881 53.4733 16.8877 53.4733 29.6565H60.0001C60.0001 13.318 46.6247 0 30.2157 0C13.8066 0 0.431152 13.318 0.431152 29.6565C0.431152 45.9951 13.8066 59.3131 30.2157 59.3131V52.86C17.3458 52.86 6.95799 42.4711 6.95799 29.6565Z" fill="#02AFF1"/>
<path d="M60 59.4505V29.6567L53.5191 29.5194V52.8602H30.2155V59.359L60 59.4505Z" fill="#02AFF1"/>
<path d="M29.8025 12.5402C20.6558 12.769 13.1637 20.1832 12.9798 29.2906C12.75 38.9473 20.5638 46.8649 30.2162 46.8649C30.3081 46.8649 30.3541 46.8649 30.446 46.8649H44.8327C46.3035 46.8649 47.4986 45.675 47.4986 44.2104V39.7253V29.6568C47.4526 20.0459 39.5009 12.2656 29.8025 12.5402ZM40.0065 33.2265H33.7554V39.4508H26.677V33.2265H20.426V26.1785H26.677V19.9086H33.7554V26.1328H40.0065V33.2265Z" fill="#02AFF1"/>
</g>
<defs>
<clipPath id="clip0_5201_1790">
<rect width="60" height="60" fill="white" transform="translate(0.431152)"/>
</clipPath>
</defs>
</svg>
