<svg width="60" height="60" viewBox="0 0 60 60" fill="none" xmlns="http://www.w3.org/2000/svg">
<path d="M6.95799 29.6565C6.95799 16.842 17.3917 6.49881 30.2156 6.49881C43.0395 6.49881 53.4732 16.8877 53.4732 29.6565H60.0001C60.0001 13.318 46.6246 0 30.2156 0C13.8066 0 0.431152 13.318 0.431152 29.6565C0.431152 45.9951 13.8066 59.3131 30.2156 59.3131V52.86C17.3458 52.86 6.95799 42.4711 6.95799 29.6565Z" fill="white"/>
<path d="M60.0001 59.4505V29.6567L53.5192 29.5194V52.8602H30.2156V59.359L60.0001 59.4505Z" fill="white"/>
<path d="M29.8024 12.5402C20.6557 12.769 13.1636 20.1832 12.9797 29.2906C12.7499 38.9473 20.5637 46.8649 30.2161 46.8649C30.308 46.8649 30.354 46.8649 30.4459 46.8649H44.8326C46.3034 46.8649 47.4985 45.675 47.4985 44.2104V39.7253V29.6568C47.4525 20.0459 39.5008 12.2656 29.8024 12.5402ZM40.0064 33.2265H33.7553V39.4508H26.6769V33.2265H20.4258V26.1785H26.6769V19.9086H33.7553V26.1328H40.0064V33.2265Z" fill="white"/>
</svg>
